<svg width="48" height="48" viewBox="0 0 48 48" fill="none" xmlns="http://www.w3.org/2000/svg">
<g clip-path="url(#clip0_7_4)">
<path d="M23.9979 47.9958C37.2527 47.9958 47.9978 37.2507 47.9978 23.996C47.9978 10.7412 37.2527 -0.00390625 23.9979 -0.00390625C10.7431 -0.00390625 -0.00195312 10.7412 -0.00195312 23.996C-0.00195312 37.2507 10.7431 47.9958 23.9979 47.9958Z" fill="#DEEEFF"/>
<path d="M29.2341 33.5957C29.2341 34.0779 28.8435 34.4684 28.3614 34.4684H10.9069C10.4247 34.4684 10.0342 34.0779 10.0342 33.5957V21.3776C10.0342 20.8954 10.4247 20.5049 10.9069 20.5049H28.3614C28.8435 20.5049 29.2341 20.8954 29.2341 21.3776V33.5957Z" fill="#2E3ECD"/>
<path d="M22.252 34.4688H17.0156V37.0869H22.252V34.4688Z" fill="#2E3ECD"/>
<path d="M23.9977 37.5233C23.9977 37.7641 23.8022 37.9596 23.5614 37.9596H15.7069C15.466 37.9596 15.2705 37.7641 15.2705 37.5233C15.2705 37.2824 15.466 37.0869 15.7069 37.0869H23.5614C23.8022 37.0869 23.9977 37.2824 23.9977 37.5233Z" fill="#2E3ECD"/>
<path d="M29.2341 33.5952V30.9771H10.0342V33.5952C10.0342 34.077 10.4252 34.4679 10.9069 34.4679H28.3614C28.8431 34.4679 29.2341 34.0774 29.2341 33.5952Z" fill="#38BDF8"/>
<path d="M37.5251 20.4119C37.5251 18.1721 36.1414 16.2582 34.1835 15.4697C32.6322 11.6759 30.1262 10.1343 27.0568 10.1343C24.172 10.1343 21.6713 11.7781 20.4455 14.1833C18.495 13.3524 16.2957 14.7322 16.2141 16.8686C14.4381 17.4948 13.1631 19.1827 13.1631 21.1729C13.1631 23.6955 15.2083 25.7407 17.7309 25.7407H32.9569C32.9573 25.7412 37.5251 24.8942 37.5251 20.4119Z" fill="#38BDF8"/>
<path d="M30.3288 19.8442C30.2398 19.6295 30.0299 19.489 29.7973 19.489H28.3098V15.4623C28.3098 15.1446 28.0523 14.8872 27.7346 14.8872H24.2835C23.9658 14.8872 23.7083 15.1446 23.7083 15.4623V19.489H22.2208C21.9882 19.489 21.7783 19.6291 21.6893 19.8442C21.6003 20.0594 21.6496 20.3063 21.8141 20.4713L25.5912 23.9294C25.816 24.1542 26.1799 24.1542 26.4046 23.9294L30.2044 20.4713C30.3685 20.3063 30.4178 20.0594 30.3288 19.8442Z" fill="#2E3ECD"/>
</g>
<defs>
<clipPath id="clip0_7_4">
<rect width="48" height="48" fill="white"/>
</clipPath>
</defs>
</svg>
